<svg xmlns="http://www.w3.org/2000/svg" width="52.664" height="200.564" viewBox="0 0 26.332 100.282"><!--svg-source:excalidraw--><g fill="none" stroke="#1e1e1e" stroke-linecap="round" stroke-width="2"><path d="M11.347 10.417c1.06 6.12 4.58 21.77 4.95 35.08.37 13.31-2.48 37.56-2.74 44.78m-3.56-80.28c.97 6.34 4.76 23.87 5.17 36.91.42 13.04-2.71 34.23-2.68 41.32"/><path d="M6.357 67.067c3.15 3.67 2.01 7.54 6.13 21.16m-6.13-21.16c2.78 6.46 3.36 13.96 6.13 21.16m8.91-20.15c.12 3.49-4.05 7.16-8.91 20.15m8.91-20.15c-2.44 6-7.06 13.15-8.91 20.15"/></g></svg>