<svg xmlns="http://www.w3.org/2000/svg" width="54.578" height="187.719" viewBox="0 0 27.289 93.859"><!--svg-source:excalidraw--><g fill="none" stroke="#1e1e1e" stroke-linecap="round" stroke-width="2"><path d="M12.794 10.004c-.67 6.54-2.56 27.6-1.81 39.75.75 12.15 5.48 27.7 6.3 33.15m-2.91-70.86c-.93 6.29-4.73 24.24-4.35 36.21.39 11.97 5.72 29.82 6.65 35.61"/><path d="M7.124 68.894c2.04 5.89 9.09 12.16 9.55 14.97m-9.55-14.97c2.75 4.2 4.66 6.88 9.55 14.97m2.31-17.61c-2.59 6.8-.14 14.1-2.31 17.61m2.31-17.61c-.16 4.73-1.13 8.05-2.31 17.61"/></g></svg>